<svg xmlns="http://www.w3.org/2000/svg" viewBox="0 0 360 24" width="360" height="24"><circle cx="26" cy="12" r="1.3" fill="#b8955f"/><circle cx="40" cy="12" r="1.3" fill="#b8955f"/><circle cx="54" cy="12" r="2.2" fill="#b8955f"/><circle cx="68" cy="12" r="1.3" fill="#b8955f"/><circle cx="82" cy="12" r="1.3" fill="#b8955f"/><circle cx="96" cy="12" r="2.2" fill="#b8955f"/><circle cx="110" cy="12" r="1.3" fill="#b8955f"/><circle cx="124" cy="12" r="1.3" fill="#b8955f"/><circle cx="138" cy="12" r="2.2" fill="#b8955f"/><circle cx="152" cy="12" r="1.3" fill="#b8955f"/><circle cx="166" cy="12" r="1.3" fill="#b8955f"/><path d="M180 4 l8 8 -8 8 -8 -8z" fill="none" stroke="#b8955f" stroke-width="1.2"/><circle cx="180" cy="12" r="2" fill="#b8955f"/><circle cx="194" cy="12" r="1.3" fill="#b8955f"/><circle cx="208" cy="12" r="1.3" fill="#b8955f"/><circle cx="222" cy="12" r="2.2" fill="#b8955f"/><circle cx="236" cy="12" r="1.3" fill="#b8955f"/><circle cx="250" cy="12" r="1.3" fill="#b8955f"/><circle cx="264" cy="12" r="2.2" fill="#b8955f"/><circle cx="278" cy="12" r="1.3" fill="#b8955f"/><circle cx="292" cy="12" r="1.3" fill="#b8955f"/><circle cx="306" cy="12" r="2.2" fill="#b8955f"/><circle cx="320" cy="12" r="1.3" fill="#b8955f"/><circle cx="334" cy="12" r="1.3" fill="#b8955f"/></svg>
