<svg xmlns="http://www.w3.org/2000/svg" viewBox="0 0 220 220" width="220" height="220"><defs><radialGradient id="wsg" cx="40%" cy="34%" r="70%"><stop offset="0" stop-color="#ecd29b"/><stop offset=".55" stop-color="#c79d5a"/><stop offset="1" stop-color="#8d6531"/></radialGradient><radialGradient id="wsi" cx="58%" cy="62%" r="70%"><stop offset="0" stop-color="#d9b675"/><stop offset="1" stop-color="#a77d41"/></radialGradient><filter id="wsb" x="-20%" y="-20%" width="140%" height="140%"><feTurbulence type="fractalNoise" baseFrequency=".035" numOctaves="2" seed="11"/><feDisplacementMap in="SourceGraphic" scale="16"/></filter><filter id="wsh" x="-20%" y="-20%" width="140%" height="140%"><feDropShadow dx="0" dy="5" stdDeviation="5" flood-color="#3b2a1f" flood-opacity=".35"/></filter></defs><g filter="url(#wsh)"><circle cx="110" cy="110" r="88" fill="url(#wsg)" filter="url(#wsb)"/></g><circle cx="110" cy="110" r="60" fill="url(#wsi)"/><circle cx="110" cy="110" r="60" fill="none" stroke="#7a5526" stroke-width="3" opacity=".45"/><circle cx="109" cy="109" r="60" fill="none" stroke="#f6e0b0" stroke-width="1.2" opacity=".7"/><g transform="translate(111 111)" opacity=".55"><path d="M-34 26 Q-6 8 30 -30" fill="none" stroke="#6e4b20" stroke-width="1.54" stroke-linecap="round"/><g transform="translate(-30 23.3) rotate(7.6)"><path d="M0 0 C 4.6 -4 4.3 -12.1 0 -16.1 C -4.3 -12.1 -4.6 -4 0 0Z" fill="none" stroke="#6e4b20" stroke-width="1.4" stroke-linejoin="round"/></g><g transform="translate(-21.6 17.4) rotate(104.7)"><path d="M0 0 C 4.3 -3.5 4 -10.5 0 -14 C -4 -10.5 -4.3 -3.5 0 0Z" fill="none" stroke="#6e4b20" stroke-width="1.4" stroke-linejoin="round"/></g><g transform="translate(-13 10.6) rotate(-1.7)"><path d="M0 0 C 4 -3.2 3.7 -9.7 0 -12.9 C -3.7 -9.7 -4 -3.2 0 0Z" fill="none" stroke="#6e4b20" stroke-width="1.4" stroke-linejoin="round"/></g><g transform="translate(-4 3) rotate(102.9)"><path d="M0 0 C 3.7 -3 3.4 -9.1 0 -12.2 C -3.4 -9.1 -3.7 -3 0 0Z" fill="none" stroke="#6e4b20" stroke-width="1.4" stroke-linejoin="round"/></g><g transform="translate(5.3 -5.4) rotate(-6.1)"><path d="M0 0 C 3.4 -3.1 3.1 -9.4 0 -12.5 C -3.1 -9.4 -3.4 -3.1 0 0Z" fill="none" stroke="#6e4b20" stroke-width="1.4" stroke-linejoin="round"/></g><g transform="translate(14.9 -14.6) rotate(92.1)"><path d="M0 0 C 3.1 -2.6 2.8 -7.9 0 -10.5 C -2.8 -7.9 -3.1 -2.6 0 0Z" fill="none" stroke="#6e4b20" stroke-width="1.4" stroke-linejoin="round"/></g><g transform="translate(24.9 -24.7) rotate(-10.2)"><path d="M0 0 C 2.8 -2.6 2.6 -7.8 0 -10.4 C -2.6 -7.8 -2.8 -2.6 0 0Z" fill="none" stroke="#6e4b20" stroke-width="1.4" stroke-linejoin="round"/></g><g transform="translate(30 -30) rotate(48.8)"><path d="M0 0 C 2.6 -2.5 2.4 -7.6 0 -10.2 C -2.4 -7.6 -2.6 -2.5 0 0Z" fill="none" stroke="#6e4b20" stroke-width="1.4" stroke-linejoin="round"/></g></g><g transform="translate(109.4 109.4)" opacity=".45"><path d="M-34 26 Q-6 8 30 -30" fill="none" stroke="#fbe7bd" stroke-width="0.8800000000000001" stroke-linecap="round"/><g transform="translate(-30 23.3) rotate(3.5)"><path d="M0 0 C 4.6 -4.2 4.3 -12.6 0 -16.9 C -4.3 -12.6 -4.6 -4.2 0 0Z" fill="none" stroke="#fbe7bd" stroke-width="0.8" stroke-linejoin="round"/></g><g transform="translate(-21.6 17.4) rotate(106.2)"><path d="M0 0 C 4.3 -3.5 4 -10.4 0 -13.9 C -4 -10.4 -4.3 -3.5 0 0Z" fill="none" stroke="#fbe7bd" stroke-width="0.8" stroke-linejoin="round"/></g><g transform="translate(-13 10.6) rotate(4.7)"><path d="M0 0 C 4 -3.9 3.7 -11.6 0 -15.4 C -3.7 -11.6 -4 -3.9 0 0Z" fill="none" stroke="#fbe7bd" stroke-width="0.8" stroke-linejoin="round"/></g><g transform="translate(-4 3) rotate(102)"><path d="M0 0 C 3.7 -3.6 3.4 -10.8 0 -14.4 C -3.4 -10.8 -3.7 -3.6 0 0Z" fill="none" stroke="#fbe7bd" stroke-width="0.8" stroke-linejoin="round"/></g><g transform="translate(5.3 -5.4) rotate(-8.1)"><path d="M0 0 C 3.4 -2.8 3.1 -8.5 0 -11.3 C -3.1 -8.5 -3.4 -2.8 0 0Z" fill="none" stroke="#fbe7bd" stroke-width="0.8" stroke-linejoin="round"/></g><g transform="translate(14.9 -14.6) rotate(89.9)"><path d="M0 0 C 3.1 -3 2.8 -9 0 -12.1 C -2.8 -9 -3.1 -3 0 0Z" fill="none" stroke="#fbe7bd" stroke-width="0.8" stroke-linejoin="round"/></g><g transform="translate(24.9 -24.7) rotate(-6.2)"><path d="M0 0 C 2.8 -2.4 2.6 -7.1 0 -9.5 C -2.6 -7.1 -2.8 -2.4 0 0Z" fill="none" stroke="#fbe7bd" stroke-width="0.8" stroke-linejoin="round"/></g><g transform="translate(30 -30) rotate(48.8)"><path d="M0 0 C 2.6 -2.5 2.4 -7.6 0 -10.2 C -2.4 -7.6 -2.6 -2.5 0 0Z" fill="none" stroke="#fbe7bd" stroke-width="0.8" stroke-linejoin="round"/></g></g></svg>
